<?xml version="1.0" standalone="no"?>
<!DOCTYPE svg PUBLIC "-//W3C//DTD SVG 20010904//EN"
 "http://www.w3.org/TR/2001/REC-SVG-20010904/DTD/svg10.dtd">
<svg version="1.0" xmlns="http://www.w3.org/2000/svg"
 width="820.000000pt" height="680.000000pt" viewBox="0 0 820.000000 680.000000"
 preserveAspectRatio="xMidYMid meet">

<g transform="translate(0.000000,680.000000) scale(0.100000,-0.100000)"
fill="#000000" stroke="none">
<path d="M4000 5130 c-764 -49 -1542 -351 -2190 -849 -135 -103 -294 -241
-287 -248 3 -2 56 27 119 65 163 100 397 215 561 276 37 14 67 23 67 21 0 -2
-35 -31 -77 -63 -197 -150 -424 -360 -603 -556 -116 -128 -130 -139 -259 -217
-75 -46 -153 -93 -174 -106 l-37 -23 15 -38 c18 -43 88 -112 141 -137 22 -10
61 -18 91 -18 82 0 132 32 241 153 228 253 271 297 405 423 79 72 192 172 252
220 129 104 382 274 510 342 77 42 87 45 72 24 -141 -194 -232 -395 -279 -612
-32 -150 -32 -427 0 -585 110 -544 506 -990 1031 -1162 291 -95 617 -100 905
-14 409 122 743 408 922 789 185 394 190 831 14 1245 -18 41 -37 81 -43 88
-28 35 10 12 118 -70 250 -189 464 -392 671 -634 l46 -54 -62 -107 c-376 -646
-893 -1119 -1495 -1366 -230 -94 -362 -120 -605 -119 -195 1 -342 18 -558 63
-365 77 -841 243 -1406 488 -77 34 -141 59 -143 57 -6 -6 144 -94 300 -176
685 -359 1405 -570 1950 -570 546 0 1047 222 1578 702 228 207 540 594 663
823 l27 51 117 17 c216 32 366 79 420 133 26 26 32 39 27 56 -9 32 -390 408
-554 546 -224 190 -430 340 -636 464 -44 26 -77 48 -73 48 18 0 316 -66 542
-121 137 -33 257 -58 265 -56 35 7 -345 240 -606 371 -540 270 -1040 407
-1596 436 -208 11 -216 11 -387 0z m-690 -545 c0 -2 -21 -18 -47 -36 -270
-186 -472 -503 -539 -846 -24 -122 -24 -367 -1 -487 58 -288 184 -526 386
-726 259 -258 560 -390 921 -407 456 -20 888 187 1153 555 292 406 332 942
104 1397 -43 87 -121 206 -171 264 -65 74 -64 77 10 36 40 -21 109 -63 155
-94 80 -54 86 -60 126 -141 239 -478 190 -1066 -124 -1508 -55 -78 -179 -212
-253 -273 -380 -316 -898 -423 -1375 -284 -670 195 -1131 824 -1102 1505 13
293 89 533 243 765 29 44 63 92 76 107 26 30 141 83 301 139 107 37 137 45
137 34z m1246 -820 c226 -100 272 -396 85 -544 -159 -125 -393 -72 -492 111
-32 59 -34 69 -34 153 0 78 4 97 27 141 78 148 258 209 414 139z"/>
</g>
</svg>
