<?xml version="1.0" standalone="no"?>
<!DOCTYPE svg PUBLIC "-//W3C//DTD SVG 20010904//EN"
 "http://www.w3.org/TR/2001/REC-SVG-20010904/DTD/svg10.dtd">
<svg version="1.0" xmlns="http://www.w3.org/2000/svg"
 width="245.000000pt" height="247.000000pt" viewBox="0 0 245.000000 247.000000"
 preserveAspectRatio="xMidYMid meet">

<g transform="translate(0.000000,247.000000) scale(0.100000,-0.100000)"
fill="#000000" stroke="none">
<path d="M0 1235 l0 -1235 1225 0 1225 0 -1 428 c0 333 -3 421 -12 402 -6 -14
-18 -31 -25 -39 -12 -12 -15 -12 -23 0 -7 11 -13 127 -12 242 0 9 -4 17 -9 17
-5 0 -8 -12 -6 -27 2 -16 -2 -28 -11 -31 -8 -3 -11 0 -7 7 5 7 1 9 -8 5 -9 -4
-16 -1 -16 6 0 9 -7 7 -20 -5 -19 -17 -20 -17 -20 1 0 47 11 61 48 62 57 2 65
22 8 22 -45 0 -48 1 -43 23 4 12 2 29 -3 37 -5 8 -10 11 -11 5 -1 -15 -17 27
-18 47 -1 14 8 17 49 16 l50 -1 0 -49 c0 -28 5 -48 11 -48 6 0 8 7 5 16 -3 9
-7 79 -8 157 -2 127 -3 131 -5 40 l-4 -103 -44 0 c-45 0 -45 0 -45 35 0 19 -4
35 -8 35 -4 0 -8 9 -9 20 -1 11 3 20 9 20 7 0 6 5 -1 14 -10 11 -6 16 16 24
l28 10 -32 1 c-25 1 -33 -3 -34 -16 0 -10 -1 -54 -1 -98 l-1 -80 -7 75 c-3 41
-7 66 -9 55 -4 -36 -20 19 -23 80 -3 59 -4 60 -70 55 -17 -1 -28 4 -29 12 0 7
-4 4 -9 -7 -5 -11 -9 -15 -9 -8 -1 21 -43 125 -48 120 -2 -3 3 -29 11 -58 19
-62 18 -59 7 -59 -5 0 -13 15 -16 33 -12 52 -53 145 -92 203 -20 30 -34 57
-31 60 3 3 27 -29 53 -70 26 -42 49 -76 52 -76 5 0 -36 76 -77 144 -13 22 -19
36 -12 32 21 -13 84 -117 118 -196 32 -74 49 -89 78 -73 13 7 7 25 -34 111
-27 56 -56 105 -64 108 -9 3 -13 10 -10 15 3 5 -2 6 -10 3 -20 -8 -58 32 -56
59 3 37 1 47 -13 47 -7 0 -28 16 -47 35 -24 25 -36 31 -42 22 -10 -16 -10 -40
1 -33 4 3 18 -6 31 -19 17 -18 20 -28 12 -38 -7 -8 -7 -18 -2 -27 5 -9 5 -19
-2 -27 -7 -9 -7 -18 3 -30 7 -10 -17 11 -54 46 -36 36 -63 69 -60 75 3 6 13
19 21 29 8 9 12 17 8 17 -4 0 -16 -10 -25 -22 l-18 -21 -36 28 c-21 15 -37 30
-37 32 0 3 15 -6 34 -21 29 -21 35 -23 40 -10 10 27 8 30 -53 73 -244 170
-561 204 -818 86 -85 -39 -206 -123 -197 -136 3 -6 17 -3 32 7 l27 16 -27 -28
c-27 -28 -28 -28 -43 -9 -10 12 -15 14 -13 6 8 -29 35 -36 60 -16 13 11 6 2
-14 -19 -21 -21 -41 -35 -46 -32 -14 9 -55 -41 -46 -56 4 -7 4 -10 -1 -6 -4 4
-15 2 -23 -5 -13 -10 -14 -9 -8 10 4 13 1 26 -8 36 -13 13 -13 17 4 32 10 9
23 14 28 11 5 -3 16 1 23 10 10 13 10 17 -1 24 -18 11 -5 41 15 34 9 -4 29 6
49 24 77 67 229 140 351 168 89 21 249 21 343 1 39 -9 111 -32 159 -51 50 -20
92 -31 97 -26 15 15 -2 28 -72 54 -127 48 -176 56 -331 54 -80 -1 -151 1 -156
4 -40 25 -356 -103 -363 -147 -6 -29 -21 -43 -31 -26 -7 10 -18 5 -48 -23 -22
-19 -43 -33 -47 -29 -3 3 -6 -1 -6 -9 0 -26 -59 -70 -83 -62 -16 5 -19 3 -14
-10 8 -20 -23 -85 -64 -136 -15 -19 -42 -60 -59 -90 -17 -30 -28 -44 -24 -30
4 14 25 58 47 99 48 87 37 88 -19 1 -25 -39 -45 -60 -59 -61 -16 -1 -17 -2 -2
-6 18 -5 24 -23 7 -23 -5 0 -9 -3 -8 -7 1 -5 -13 -38 -30 -75 -30 -62 -43 -74
-74 -69 -5 0 -8 -4 -8 -10 0 -8 -5 -8 -15 1 -12 10 -15 9 -15 -5 0 -10 -3 -15
-7 -12 -3 4 -8 96 -10 204 -3 109 -7 200 -9 202 -2 2 -5 -65 -6 -150 -2 -144
-2 -148 -8 -59 l-6 95 -2 -125 c-1 -84 2 -120 8 -110 7 11 10 7 10 -17 0 -23
-5 -33 -15 -33 -13 0 -15 30 -15 212 0 116 -2 209 -4 207 -7 -7 -16 -422 -10
-445 4 -14 14 -22 30 -23 46 -3 54 -4 54 -12 0 -13 -32 -20 -45 -9 -15 13 -35
-8 -38 -39 -1 -12 -6 -21 -11 -21 -7 0 -7 -3 0 -10 5 -5 8 -28 6 -51 l-4 -41
-27 57 c-15 31 -30 53 -34 49 -4 -4 -7 0 -7 10 0 9 -5 14 -10 11 -7 -4 -10
175 -10 529 l0 535 24 28 24 28 1173 3 c1040 2 1175 1 1196 -13 21 -14 23 -14
23 5 0 20 -2 20 -1225 20 l-1225 0 0 -1235z m1350 855 c66 -11 205 -49 199
-54 -2 -2 -47 8 -99 21 -78 21 -120 26 -235 27 -78 0 -122 3 -100 7 65 10 165
10 235 -1z m-310 -20 c-34 -11 -60 -11 -35 0 11 5 29 8 40 8 16 0 15 -2 -5 -8z
m400 -24 c25 -9 34 -14 20 -11 -119 23 -169 27 -284 23 -72 -2 -117 -1 -101 3
54 14 316 3 365 -15z m-470 7 c-8 -3 -39 -16 -67 -29 -29 -13 -53 -21 -53 -18
0 8 103 53 120 53 13 -1 13 -1 0 -6z m67 -9 c-3 -3 -12 -4 -19 -1 -8 3 -5 6 6
6 11 1 17 -2 13 -5z m231 -1 c-15 -2 -42 -2 -60 0 -18 2 -6 4 27 4 33 0 48 -2
33 -4z m-283 -13 c-27 -12 -43 -12 -25 0 8 5 22 9 30 9 10 0 8 -3 -5 -9z m142
4 c-3 -3 -12 -4 -19 -1 -8 3 -5 6 6 6 11 1 17 -2 13 -5z m236 -1 c-7 -2 -21
-2 -30 0 -10 3 -4 5 12 5 17 0 24 -2 18 -5z m50 -10 c-7 -2 -19 -2 -25 0 -7 3
-2 5 12 5 14 0 19 -2 13 -5z m137 -13 c46 -25 34 -25 -21 0 -24 11 -37 19 -29
19 8 0 31 -8 50 -19z m46 4 c18 -14 18 -14 -6 -3 -31 14 -36 19 -24 19 6 0 19
-7 30 -16z m-657 2 c-10 -9 -109 -56 -109 -51 0 6 91 54 104 55 5 0 7 -2 5 -4z
m566 -17 c31 -12 55 -23 53 -24 -2 -2 -33 7 -68 20 -36 13 -60 24 -53 24 7 1
37 -8 68 -20z m-665 -3 c0 -2 -18 -15 -40 -30 -22 -14 -40 -24 -40 -22 0 5 71
56 77 56 2 0 3 -2 3 -4z m820 -22 c0 -2 -9 0 -20 6 -11 6 -20 13 -20 16 0 2 9
0 20 -6 11 -6 20 -13 20 -16z m-740 1 c-14 -8 -29 -14 -35 -14 -5 0 1 6 15 14
14 8 30 14 35 14 6 0 -1 -6 -15 -14z m745 -30 l20 -16 -20 10 c-11 5 -29 17
-40 26 l-20 16 20 -10 c11 -5 29 -17 40 -26z m-418 -45 c12 -27 9 -90 -3 -90
-17 0 -20 21 -15 99 3 36 7 53 8 36 2 -16 7 -37 10 -45z m73 30 c0 -11 -2 -20
-4 -20 -2 0 -6 9 -9 20 -3 11 -1 20 4 20 5 0 9 -9 9 -20z m401 3 c13 -16 12
-17 -3 -4 -10 7 -18 15 -18 17 0 8 8 3 21 -13z m-931 3 c0 -2 -8 -10 -17 -17
-16 -13 -17 -12 -4 4 13 16 21 21 21 13z m290 -20 c0 -2 -7 -6 -15 -10 -8 -3
-15 -1 -15 4 0 6 7 10 15 10 8 0 15 -2 15 -4z m340 -21 c0 -16 9 -29 28 -40
l27 -15 -26 6 c-29 6 -50 -13 -29 -26 8 -5 7 -9 -5 -14 -9 -3 -13 -10 -10 -16
3 -5 0 -10 -7 -10 -8 -1 -6 -6 6 -15 24 -18 22 -18 -34 0 -25 9 -33 14 -17 12
30 -5 38 9 10 16 -14 4 -13 5 4 6 18 1 23 9 29 46 3 25 4 52 0 60 -3 9 0 15 9
15 9 0 15 -10 15 -25z m-457 -10 c4 -8 3 -16 -1 -19 -4 -3 -9 4 -9 15 -2 23 3
25 10 4z m555 -17 c-9 -25 -9 -33 2 -36 9 -3 5 -10 -11 -23 l-24 -19 30 -26
30 -26 -31 21 c-33 22 -52 18 -31 -7 9 -12 4 -11 -23 3 -47 23 -51 28 -17 20
21 -6 28 -4 27 6 -3 20 11 59 20 59 5 0 13 14 19 30 5 17 12 30 15 30 3 0 0
-14 -6 -32z m-435 -51 c-3 -5 5 -11 17 -14 16 -4 18 -8 8 -14 -9 -6 -6 -9 11
-9 30 0 25 -5 -12 -14 -16 -4 -26 -3 -23 2 3 5 0 17 -8 27 -10 14 -16 16 -34
6 -18 -10 -20 -16 -12 -31 7 -13 16 -17 28 -13 22 8 14 -1 -16 -16 -18 -9 -22
-9 -20 1 2 7 -2 12 -9 11 -8 -2 -10 4 -6 14 5 12 2 15 -10 10 -12 -5 -17 -1
-17 14 0 11 -7 22 -16 26 -13 5 -13 7 -2 14 19 13 28 11 28 -5 0 -23 15 -27
50 -15 24 9 31 16 27 31 -3 11 -3 27 1 36 4 12 8 7 13 -18 4 -19 5 -38 2 -43z
m-371 11 c-7 -7 -12 -8 -12 -2 0 14 12 26 19 19 2 -3 -1 -11 -7 -17z m471 15
c-7 -2 -19 -2 -25 0 -7 3 -2 5 12 5 14 0 19 -2 13 -5z m-660 -40 c-9 -25 -46
-74 -51 -69 -6 6 40 86 50 86 4 0 4 -8 1 -17z m650 0 c-7 -2 -19 -2 -25 0 -7
3 -2 5 12 5 14 0 19 -2 13 -5z m155 0 c-10 -2 -26 -2 -35 0 -10 3 -2 5 17 5
19 0 27 -2 18 -5z m-654 -28 c-6 -16 -24 -21 -24 -7 0 11 11 22 21 22 5 0 6
-7 3 -15z m616 5 c-30 -6 -31 -8 -8 -9 14 0 55 -10 90 -21 74 -23 71 -23 64
-11 -9 15 19 7 45 -12 23 -17 23 -17 2 -7 -13 6 -23 7 -23 2 0 -5 11 -14 24
-20 28 -12 128 -103 122 -110 -3 -2 -28 16 -57 41 -70 61 -97 76 -109 57 -14
-22 -13 -24 24 -44 36 -19 137 -116 120 -116 -5 0 -18 11 -28 25 -10 14 -22
25 -27 25 -4 0 -20 11 -35 25 -37 35 -102 64 -176 79 -45 9 -65 10 -70 2 -6
-8 -10 -8 -15 0 -14 21 -113 -3 -195 -45 -46 -24 -75 -34 -71 -25 3 8 11 14
18 14 23 0 24 14 3 40 -18 22 -21 23 -31 9 -7 -9 -20 -16 -29 -16 -13 0 -15 4
-7 19 5 10 12 18 15 18 3 0 2 -4 -1 -10 -3 -5 -2 -10 3 -10 19 0 21 14 6 38
-8 13 -14 25 -12 26 2 1 12 8 23 16 20 15 20 14 1 -8 -15 -17 -16 -22 -5 -22
8 0 21 6 28 13 9 8 12 8 7 0 -3 -6 1 -13 11 -16 13 -3 12 -5 -5 -6 -14 -1 -22
-6 -19 -13 2 -7 11 -11 18 -10 8 2 11 0 7 -3 -9 -9 9 -45 22 -45 5 0 15 6 22
13 7 6 22 13 33 15 11 2 25 9 30 15 6 7 20 12 33 13 91 3 92 3 92 29 0 21 -5
25 -30 25 -24 0 -30 -4 -31 -22 -1 -17 -2 -19 -6 -5 -6 24 -38 21 -100 -8 -29
-13 -53 -22 -53 -19 0 12 113 55 162 62 52 6 52 7 18 13 -23 4 -5 6 50 6 61 0
75 -2 50 -7z m-480 -23 c0 -2 -15 -16 -32 -33 -18 -16 -30 -25 -25 -20 4 5 -1
19 -10 30 -16 19 -16 19 -1 7 14 -11 21 -10 40 3 23 16 28 19 28 13z m-309
-78 c-23 -35 -41 -59 -41 -53 0 13 72 125 77 120 2 -2 -14 -32 -36 -67z m1364
51 c10 -11 16 -20 13 -20 -3 0 -13 9 -23 20 -10 11 -16 20 -13 20 3 0 13 -9
23 -20z m-141 -15 c9 -23 -19 -24 -30 0 -9 19 -8 22 7 18 10 -3 20 -11 23 -18z
m217 -50 l10 -20 -16 20 c-9 11 -21 29 -26 40 l-10 20 16 -20 c9 -11 21 -29
26 -40z m-565 -33 c28 -10 80 -40 115 -65 57 -41 86 -65 177 -150 20 -18 24
-19 32 -7 8 13 10 12 10 -2 0 -19 93 -52 175 -64 24 -3 57 -9 72 -13 28 -8 28
-8 -10 -16 -83 -16 -125 -6 -413 101 -205 76 -278 91 -367 75 -63 -11 -187
-58 -320 -120 -110 -52 -226 -91 -265 -90 -20 0 -53 7 -72 14 l-35 13 60 1
c77 1 216 47 223 74 4 14 7 15 13 6 6 -10 12 -10 27 4 10 9 22 17 26 17 5 0
49 42 100 93 91 93 130 119 216 144 59 17 171 10 236 -15z m-458 -6 c-2 0 -16
-12 -32 -26 l-30 -25 25 31 c13 17 28 29 32 27 5 -3 7 -6 5 -7z m32 -29 c0 -2
-10 -12 -22 -23 l-23 -19 19 23 c18 21 26 27 26 19z m1040 -32 c0 -5 -5 -3
-10 5 -5 8 -10 20 -10 25 0 6 5 3 10 -5 5 -8 10 -19 10 -25z m-250 -20 c0 -12
-19 -12 -23 0 -4 9 -1 12 9 8 7 -3 14 -7 14 -8z m-1403 -25 c-3 -11 -1 -20 4
-20 5 0 9 -5 9 -12 0 -8 -5 -7 -15 3 -9 9 -13 23 -9 32 9 24 17 21 11 -3z
m1393 -34 c0 -12 -5 -7 -19 24 -11 24 -11 24 3 6 9 -11 16 -24 16 -30z m254 8
c3 -8 2 -12 -4 -9 -6 3 -10 10 -10 16 0 14 7 11 14 -7z m-234 -59 c0 -5 -5 -3
-10 5 -5 8 -10 20 -10 25 0 6 5 3 10 -5 5 -8 10 -19 10 -25z m267 13 c-3 -8
-6 -5 -6 6 -1 11 2 17 5 13 3 -3 4 -12 1 -19z m-729 -54 c26 -18 29 -44 5 -45
-10 -1 -48 -3 -85 -5 -73 -5 -91 6 -63 36 28 31 108 39 143 14z m969 -156 c-3
-7 -5 -2 -5 12 0 14 2 19 5 13 2 -7 2 -19 0 -25z m-1484 -14 c32 -11 76 -42
139 -100 142 -130 243 -170 382 -152 73 10 154 52 241 127 99 83 136 111 151
111 27 0 13 -18 -84 -112 -150 -146 -270 -192 -434 -167 -113 17 -186 57 -297
164 -94 89 -144 125 -175 125 -8 0 -18 5 -21 10 -9 15 46 12 98 -6z m314 0
c-3 -3 -12 -4 -19 -1 -8 3 -5 6 6 6 11 1 17 -2 13 -5z m13 -49 c0 -9 -6 -12
-15 -9 -8 4 -12 10 -9 15 8 14 24 10 24 -6z m1210 -245 l-7 -65 -1 61 c-1 33
1 64 5 67 10 10 10 7 3 -63z m27 -27 c-2 -16 -4 -3 -4 27 0 30 2 43 4 28 2
-16 2 -40 0 -55z m-732 -393 c-3 -5 -12 -10 -18 -10 -7 0 -6 4 3 10 19 12 23
12 15 0z m-65 -30 c-39 -20 -146 -50 -176 -49 -11 0 13 8 51 18 39 11 86 26
105 34 49 22 62 20 20 -3z m-473 -36 c-3 -3 -12 -4 -19 -1 -8 3 -5 6 6 6 11 1
17 -2 13 -5z m46 -11 c-7 -2 -19 -2 -25 0 -7 3 -2 5 12 5 14 0 19 -2 13 -5z
m175 -10 c-21 -2 -57 -2 -80 0 -24 2 -7 4 37 4 44 0 63 -2 43 -4z"/>
<path d="M1246 1744 c-9 -24 0 -31 53 -38 27 -4 66 -13 86 -21 32 -14 36 -14
41 0 11 27 -4 42 -58 57 -52 14 -53 14 -60 -6 -6 -20 -6 -20 -7 2 -1 16 -7 22
-25 22 -13 0 -27 -7 -30 -16z"/>
<path d="M253 2383 c75 -2 199 -2 275 0 75 1 13 3 -138 3 -151 0 -213 -2 -137
-3z"/>
<path d="M1973 2383 c71 -2 183 -2 250 0 67 1 10 3 -128 3 -137 0 -192 -2
-122 -3z"/>
<path d="M108 2287 c5 -105 10 -114 11 -20 0 45 -3 84 -7 87 -4 2 -6 -28 -4
-67z"/>
<path d="M1008 2183 c7 -3 16 -2 19 1 4 3 -2 6 -13 5 -11 0 -14 -3 -6 -6z"/>
<path d="M1667 2047 c-2 -7 26 -37 63 -68 58 -49 69 -55 84 -43 16 11 12 17
-45 59 -83 61 -96 68 -102 52z"/>
<path d="M267 2015 c-16 -14 -34 -22 -40 -19 -7 4 -9 3 -4 -1 4 -5 0 -17 -10
-27 -35 -38 5 -16 47 27 48 49 52 59 7 20z"/>
<path d="M605 1992 c-23 -20 -34 -31 -25 -24 20 15 34 16 25 2 -13 -21 11 -8
50 27 22 19 31 31 19 25 -11 -6 -26 -18 -34 -26 -7 -9 -17 -16 -23 -16 -6 0 0
11 13 25 34 37 21 30 -25 -13z"/>
<path d="M2235 2010 c10 -11 20 -20 23 -20 3 0 -3 9 -13 20 -10 11 -20 20 -23
20 -3 0 3 -9 13 -20z"/>
<path d="M164 1998 l-19 -23 23 19 c21 18 27 26 19 26 -2 0 -12 -10 -23 -22z"/>
<path d="M279 1953 l-24 -28 28 24 c15 14 27 26 27 28 0 8 -8 1 -31 -24z"/>
<path d="M289 1933 c-12 -16 -12 -17 1 -6 8 6 33 13 55 16 l40 4 -41 1 c-29 1
-46 -3 -55 -15z"/>
<path d="M441 1924 c0 -11 3 -14 6 -6 3 7 2 16 -1 19 -3 4 -6 -2 -5 -13z"/>
<path d="M152 1905 c0 -16 2 -22 5 -12 2 9 2 23 0 30 -3 6 -5 -1 -5 -18z"/>
<path d="M203 1850 c0 -41 2 -58 4 -37 2 20 2 54 0 75 -2 20 -4 3 -4 -38z"/>
<path d="M2274 1700 c0 -91 2 -128 3 -82 2 45 2 119 0 165 -1 45 -3 8 -3 -83z"/>
<path d="M283 1765 c0 -33 2 -45 4 -27 2 18 2 45 0 60 -2 15 -4 0 -4 -33z"/>
<path d="M2361 1614 c0 -11 3 -14 6 -6 3 7 2 16 -1 19 -3 4 -6 -2 -5 -13z"/>
<path d="M2363 1520 c0 -30 2 -43 4 -27 2 15 2 39 0 55 -2 15 -4 2 -4 -28z"/>
<path d="M176 1503 c-4 -9 -2 -21 4 -27 7 -7 10 -2 10 17 0 31 -5 34 -14 10z"/>
<path d="M202 1490 c0 -14 2 -19 5 -12 2 6 2 18 0 25 -3 6 -5 1 -5 -13z"/>
<path d="M2238 1453 c12 -2 32 -2 45 0 12 2 2 4 -23 4 -25 0 -35 -2 -22 -4z"/>
</g>
</svg>
