<?xml version="1.0" standalone="no"?>
<!DOCTYPE svg PUBLIC "-//W3C//DTD SVG 20010904//EN"
 "http://www.w3.org/TR/2001/REC-SVG-20010904/DTD/svg10.dtd">
<svg version="1.0" xmlns="http://www.w3.org/2000/svg"
 width="603.000000pt" height="163.000000pt" viewBox="0 0 603.000000 163.000000"
 preserveAspectRatio="xMidYMid meet">

<g transform="translate(0.000000,163.000000) scale(0.100000,-0.100000)"
fill="#000000" stroke="none">
<path d="M4940 900 l0 -420 90 0 90 0 0 420 0 420 -90 0 -90 0 0 -420z"/>
<path d="M5170 900 l0 -420 90 0 90 0 0 420 0 420 -90 0 -90 0 0 -420z"/>
<path d="M5390 900 l0 -420 90 0 90 0 0 420 0 420 -90 0 -90 0 0 -420z"/>
<path d="M540 1191 c0 -5 -18 -11 -41 -15 -29 -5 -43 -12 -46 -26 -3 -11 -9
-20 -14 -20 -19 0 -47 -40 -65 -91 -22 -63 -27 -247 -7 -270 6 -8 14 -31 18
-51 4 -20 13 -39 21 -42 8 -3 14 -12 14 -19 0 -16 73 -47 108 -47 13 0 22 -6
22 -15 0 -10 10 -15 30 -15 20 0 30 5 30 15 0 8 8 15 17 15 37 0 98 31 110 57
11 23 10 28 -9 45 -26 22 -47 23 -54 3 -4 -9 -19 -15 -40 -15 -19 0 -34 -4
-34 -10 0 -5 -7 -10 -15 -10 -8 0 -15 5 -15 10 0 6 -11 10 -25 10 -25 0 -65
27 -65 44 0 5 -8 18 -17 29 -26 28 -25 196 0 252 31 67 126 94 201 58 32 -15
36 -15 60 1 26 16 36 46 16 46 -5 0 -10 6 -10 13 0 8 -18 20 -40 27 -22 7 -40
17 -40 22 0 4 -25 8 -55 8 -30 0 -55 -4 -55 -9z"/>
<path d="M810 905 l0 -295 45 0 45 0 0 120 0 120 115 0 115 0 0 -120 0 -120
40 0 40 0 0 295 0 295 -40 0 -40 0 0 -135 0 -135 -115 0 -115 0 0 135 0 135
-45 0 -45 0 0 -295z"/>
<path d="M1455 1180 c-3 -11 -11 -20 -16 -20 -5 0 -9 -11 -9 -24 0 -14 -6 -31
-13 -38 -14 -14 -54 -143 -68 -222 -4 -27 -12 -52 -17 -55 -5 -3 -12 -17 -16
-31 -18 -62 -46 -166 -46 -172 0 -5 18 -8 39 -8 l39 0 23 75 22 75 98 0 c96 0
99 -1 99 -22 0 -37 25 -109 41 -119 23 -14 92 -12 82 4 -10 16 -43 141 -50
190 -3 20 -9 37 -14 37 -5 0 -9 9 -9 20 0 11 -4 20 -9 20 -9 0 -32 73 -49 155
-27 133 -40 155 -91 155 -21 0 -32 -6 -36 -20z m55 -147 c0 -40 19 -113 30
-113 6 0 30 -75 30 -94 0 -3 -34 -6 -76 -6 l-76 0 7 33 c4 17 11 34 15 37 10
7 50 141 50 169 0 12 4 19 10 16 6 -3 10 -22 10 -42z"/>
<path d="M1780 905 l0 -295 40 0 39 0 3 123 c3 120 3 122 26 122 15 0 29 -10
40 -30 9 -16 25 -36 35 -43 9 -7 17 -20 17 -28 0 -8 11 -32 25 -54 14 -22 25
-44 25 -49 0 -20 51 -41 102 -41 46 1 51 2 36 14 -10 7 -18 18 -18 25 0 15
-31 64 -47 74 -7 4 -13 14 -13 22 0 7 -10 22 -22 32 -27 22 -58 74 -58 97 0 9
-4 16 -9 16 -34 0 -9 63 52 133 15 17 27 37 27 44 0 7 9 18 21 25 19 12 59 80
59 100 0 4 -20 8 -45 8 -25 0 -45 -4 -45 -9 0 -5 -9 -11 -20 -14 -11 -3 -20
-12 -20 -21 0 -9 -9 -26 -20 -38 -11 -12 -25 -37 -31 -57 -6 -20 -20 -44 -31
-54 -11 -11 -23 -30 -28 -43 -7 -17 -17 -24 -35 -24 l-25 0 0 130 0 130 -40 0
-40 0 0 -295z"/>
<path d="M2230 905 l0 -295 40 0 40 0 0 105 0 105 45 0 c37 0 45 -3 45 -19 0
-10 7 -24 15 -31 8 -7 15 -20 15 -29 0 -9 9 -31 20 -49 11 -18 20 -38 20 -44
0 -21 36 -37 84 -38 47 0 48 1 33 18 -10 10 -17 24 -17 30 0 7 -4 12 -10 12
-5 0 -10 7 -10 15 0 8 -4 15 -9 15 -5 0 -12 13 -16 29 -3 16 -13 35 -21 42 -8
6 -14 19 -14 29 0 10 -7 20 -15 24 -8 3 -15 12 -15 21 0 8 7 15 15 15 8 0 15
7 15 15 0 8 3 15 8 15 4 0 17 15 30 33 16 25 22 48 22 89 0 58 -16 118 -31
118 -5 0 -9 6 -9 13 0 16 -41 37 -70 37 -11 0 -20 5 -20 10 0 6 -38 10 -95 10
l-95 0 0 -295z m210 185 c23 -12 35 -66 26 -116 -6 -28 -14 -38 -41 -50 -19
-8 -53 -14 -75 -14 l-40 0 0 95 0 95 56 0 c30 0 64 -5 74 -10z"/>
<path d="M2796 1184 c-3 -9 -6 -24 -6 -34 0 -10 -6 -25 -13 -32 -14 -14 -75
-199 -84 -256 -3 -18 -9 -35 -14 -38 -5 -3 -9 -16 -9 -29 0 -12 -6 -25 -14
-28 -12 -5 -16 -21 -33 -124 -5 -32 -4 -33 32 -33 40 0 64 20 65 54 0 10 5 36
12 57 l11 39 97 0 97 0 7 -62 c7 -74 21 -88 83 -88 41 0 55 11 33 25 -5 3 -10
19 -10 35 0 16 -7 35 -15 44 -8 8 -15 24 -15 35 0 11 -4 22 -8 25 -5 3 -15 30
-22 61 -7 30 -16 55 -21 55 -8 0 -16 29 -34 120 -7 36 -21 93 -31 128 l-18 62
-42 0 c-29 0 -44 -5 -48 -16z m98 -294 c9 -30 16 -58 16 -62 0 -5 -35 -8 -77
-8 -43 0 -73 4 -67 8 6 4 14 21 17 37 5 23 47 181 58 215 0 3 9 -26 19 -65 10
-38 25 -95 34 -125z"/>
<path d="M3017 1168 c4 -18 12 -38 19 -45 6 -7 18 -35 25 -63 7 -27 16 -50 20
-50 3 0 11 -19 17 -42 37 -152 46 -185 52 -198 13 -27 30 -86 30 -106 1 -35
25 -54 68 -54 48 0 49 2 72 89 39 142 63 215 74 227 7 6 18 38 25 70 6 33 18
80 26 105 8 26 15 54 15 63 0 42 28 7 69 -84 47 -108 91 -202 102 -222 5 -10
9 -70 9 -133 l0 -115 55 0 55 0 0 116 c0 123 11 181 41 213 10 10 23 38 29 62
7 24 27 76 46 116 19 39 34 74 34 77 0 3 -18 6 -40 6 -22 0 -40 -4 -40 -9 0
-5 -6 -16 -13 -23 -18 -20 -55 -108 -62 -150 -3 -21 -12 -41 -19 -45 -8 -5
-15 -17 -17 -27 -5 -26 -28 -32 -35 -9 -3 10 -12 32 -20 50 -8 17 -14 34 -14
38 0 3 -17 44 -37 91 l-36 84 -79 0 c-98 0 -106 -7 -137 -115 -13 -44 -32
-109 -42 -144 -11 -35 -19 -70 -19 -78 0 -7 -4 -13 -9 -13 -5 0 -16 -28 -23
-62 l-14 -61 -22 79 c-22 77 -33 113 -89 302 l-28 92 -47 0 -47 0 6 -32z"/>
<path d="M3950 992 c0 -217 13 -306 46 -319 7 -3 14 -11 14 -19 0 -15 60 -44
91 -44 11 0 19 -7 19 -15 0 -8 9 -15 20 -15 11 0 20 7 20 15 0 9 9 15 24 15
34 0 96 28 96 43 0 7 9 22 19 34 34 36 41 91 41 306 l0 207 -45 0 -45 0 0
-195 c0 -155 -3 -205 -17 -250 l-17 -55 -71 0 -71 0 -17 55 c-14 45 -17 95
-17 250 l0 195 -45 0 -45 0 0 -208z"/>
<path d="M4440 905 l0 -295 40 0 40 0 0 119 0 120 110 3 110 3 0 -122 0 -123
45 0 45 0 0 281 c0 308 0 309 -59 309 l-31 0 0 -135 0 -135 -110 0 -110 0 0
135 0 135 -40 0 -40 0 0 -295z"/>
</g>
</svg>
